<?xml version="1.0" encoding="UTF-8"?>
<svg id="Layer_1" xmlns="http://www.w3.org/2000/svg" version="1.1" xmlns:xlink="http://www.w3.org/1999/xlink" viewBox="0 0 1080 1080">
  <!-- Generator: Adobe Illustrator 30.2.1, SVG Export Plug-In . SVG Version: 2.1.1 Build 1)  -->
  <defs>
    <style>
      .st0, .st1 {
        fill: #fff;
      }

      .st1 {
        stroke: #fff;
        stroke-miterlimit: 10;
        stroke-width: 1.51px;
      }

      .st2 {
        fill: url(#linear-gradient);
      }
    </style>
    <linearGradient id="linear-gradient" x1="-4814.56" y1="363.94" x2="-4195.59" y2="363.94" gradientTransform="translate(-3965.08) rotate(-180) scale(1 -1)" gradientUnits="userSpaceOnUse">
      <stop offset="0" stop-color="#ec1d32"/>
      <stop offset=".09" stop-color="#d7335d"/>
      <stop offset=".22" stop-color="#b8549f"/>
      <stop offset=".42" stop-color="#e1924b"/>
      <stop offset=".53" stop-color="#fbba17"/>
      <stop offset=".78" stop-color="#69c7d2"/>
      <stop offset=".8" stop-color="#5fc8e0"/>
      <stop offset="1" stop-color="#3755a5"/>
    </linearGradient>
  </defs>
  <path class="st2" d="M273.59,516.07c1.49,6.03,6.41,14.45,10.94,18.7l127.93,120.08c4.53,4.25,13.04,6.06,18.9,4.01l97.87-34.19c5.87-2.05,15.48-2.07,21.35-.05l99.31,34.15c5.88,2.02,14.36.15,18.84-4.15l128.86-123.61c4.48-4.3,9.37-12.76,10.85-18.8l40.61-165c1.48-6.03-1.05-14.4-5.64-18.6l-79.67-73.23c-4.67-4.1-9.49-12.44-10.71-18.54l-20.85-103.9c-1.22-6.09-7.1-12.5-13.07-14.25l-168.68-49.25c-5.97-1.74-15.72-1.72-21.68.06l-170.83,53.52c-5.93,1.85-11.72,8.37-12.85,14.48l-18.47,99.32c-1.14,6.11-5.9,14.45-10.58,18.53l-79.3,69.1c-4.68,4.08-7.3,12.36-5.82,18.4l42.67,173.21ZM779.6,465.93c1.14,6.11-.48,6.71-3.58,1.32l-137.16-237.59c-3.11-5.38-1.85-13.16,2.8-17.29l14.85-13.19c4.65-4.13,12.06-4.42,16.48-.64,4.42,3.78,11.9,10.17,16.62,14.21l42.43,36.28c4.72,4.04,9.52,12.34,10.65,18.45l32.29,173.55c1.14,6.11,3,16.11,4.13,22.22l.5,2.67ZM411.69,280.37c-3.1,5.38-8.19,14.19-11.3,19.57l-33.46,57.96c-3.1,5.38-10.48,8.18-16.37,6.22l-18.85-6.27c-5.89-1.96-9.79-8.56-8.65-14.67l14.07-75.66c1.14-6.11,5.93-14.41,10.65-18.45l153.39-131.19c4.72-4.04,6.04-2.94,2.94,2.44l-92.42,160.06ZM414.67,413.96c4.64-4.13,13.28-5.93,19.19-4.01l168.04,54.61c5.91,1.92,11.77,8.47,13.02,14.56l4.75,23.12c1.25,6.09-2.81,11.07-9.03,11.07h-296.56c-6.21,0-7.49-3.38-2.85-7.5l103.43-91.85ZM578.64,117.87l65.5,56.02c4.72,4.04,4.78,10.72.14,14.85l-10.77,9.56c-4.65,4.13-10.99,3.1-14.1-2.28l-33.26-57.61c-3.11-5.38-8-13.85-10.87-18.83-2.87-4.97-1.36-5.74,3.37-1.7ZM593.21,234.08l-1.99,1.77c-4.65,4.13-9.47,2.52-10.72-3.57l-20.61-100.34c-1.25-6.09.27-6.67,3.38-1.28l23.81,41.25c3.11,5.38,8.19,14.19,11.3,19.57l8.86,15.35c3.11,5.38,3.12,12.03.03,14.77-3.09,2.74-9.42,8.36-14.06,12.49ZM387.45,376.38c-5.89-1.96-8.18-7.97-5.07-13.35l148.29-256.84c3.11-5.38,6.67-4.8,7.92,1.28l28.15,137.03c1.25,6.09-1.53,14.45-6.18,18.57l-131.53,116.82c-4.64,4.13-13.27,5.9-19.17,3.94l-22.41-7.45ZM564.26,281.11c4.65-4.13,9.47-2.52,10.72,3.57l31.69,154.28c1.25,6.09-2.55,9.46-8.45,7.5l-149.46-49.7c-5.89-1.96-6.92-6.94-2.27-11.07l117.76-104.58ZM738.04,509.76c5.9,1.96,5.64,3.56-.58,3.56h-87.94c-6.21,0-12.32-4.98-13.57-11.07l-3.55-17.31c-1.25-6.09,2.55-9.46,8.45-7.5l97.19,32.32ZM774.96,497.32c3.11,5.38.82,8.18-5.07,6.22l-132.74-44.14c-5.9-1.96-11.75-8.55-13-14.63l-15.42-75.09c-1.25-6.09-3.3-16.05-4.55-22.14l-15.42-75.09c-1.25-6.09,1.53-14.44,6.18-18.57l8.54-7.59c4.65-4.12,10.5-9.32,13.01-11.55,2.51-2.23,7.1.36,10.21,5.74l114.48,198.29c3.11,5.38,8.19,14.19,11.3,19.57l22.51,38.98ZM713.12,542.83c-5.86,2.07-15.45,5.46-21.31,7.53l-32.21,11.39c-5.86,2.07-11.3.6-12.1-3.27-.8-3.87-2.47-12.01-3.72-18.1v-.03c-1.26-6.09,2.8-11.07,9.02-11.07h87.42c6.21,0,6.51,1.69.65,3.76l-27.74,9.8ZM631.49,559.8c1.25,6.09-2.52,12.76-8.38,14.83l-72.55,25.64c-5.86,2.07-15.45,2.07-21.31,0l-190.29-67.24c-5.86-2.07-5.57-3.76.64-3.76h274.33c6.21,0,12.32,4.98,13.57,11.07l4,19.46ZM321.77,475.15c-4.64,4.13-5.91,3.1-2.8-2.28l43.97-76.17c3.11-5.38,10.48-8.18,16.37-6.22l16.78,5.58c5.89,1.96,6.92,6.95,2.27,11.07l-76.59,68.02ZM342.43,378.21c5.89,1.96,8.18,7.97,5.07,13.35l-43.7,75.7c-3.11,5.38-4.72,4.79-3.58-1.32l15.76-84.73c1.14-6.11,6.89-9.5,12.79-7.54l13.66,4.54ZM755.2,544.87c5.86-2.07,6.99-.24,2.5,4.06l-85.53,82.1c-4.48,4.31-9.17,2.85-10.43-3.24l-7.28-35.45c-1.25-6.09,2.52-12.76,8.38-14.83l92.36-32.64ZM262.4,334.8c-5.89-1.96-6.86-6.87-2.13-10.91l51.05-43.65c4.72-4.04,7.66-2.34,6.52,3.77l-10.06,54.09c-1.14,6.11-6.89,9.5-12.79,7.54l-32.58-10.84ZM495.81,95.33c5.97-1.73,6.99.16,2.26,4.2l-143.29,122.56c-4.72,4.04-9.12,7.8-9.77,8.35-.65.56-.25-3.99.88-10.1l13.97-75.07c1.14-6.11,6.95-12.53,12.92-14.26l123.02-35.68ZM697.86,128.36c5.97,1.73,7.05,6.53,2.4,10.65l-27.05,24.03c-4.65,4.13-12.31,4.2-17.04.16l-74.44-63.66c-4.72-4.04-3.7-5.93,2.26-4.2l113.86,33.02ZM733.91,220.33c1.14,6.11-1.8,7.8-6.52,3.77l-41.81-35.75c-4.72-4.04-4.78-10.72-.14-14.85l9.7-8.62c4.65-4.13,12.04-10.69,16.43-14.59,4.39-3.9,8.91-2.09,10.05,4.02l12.29,66.02ZM826.52,329.86c4.72,4.04,7.37,12.28,5.89,18.32l-30.62,124.38c-1.48,6.03-3.63,5.97-4.77-.14l-35.05-188.42c-1.14-6.11,1.8-7.8,6.52-3.76l58.03,49.63ZM574.49,616.25c-5.86-2.07-8.1-4.67-4.98-5.77,3.12-1.11,10.47-3.7,16.33-5.77l40.51-14.32c5.86-2.07,11.68,1.22,12.93,7.31l6.91,33.62c1.25,6.09-2.52,9.38-8.38,7.31l-63.32-22.38ZM322.12,548.94c-4.48-4.31-3.35-6.13,2.5-4.06l176.57,62.4c5.86,2.07,11.58,4.09,12.72,4.49,1.14.4-2.73,2.42-8.59,4.49l-72,25.45c-5.86,2.07-14.32.24-18.8-4.06l-92.4-88.7ZM249.68,357.45c-1.49-6.03,2.12-9.37,8.02-7.41l34.34,11.42c5.9,1.96,10.6,4.21,10.46,5-.15.79-1.2,6.43-2.34,12.54l-17.37,93.42c-1.14,6.11-3.28,6.17-4.77.14l-28.34-115.11Z"/>
  <g>
    <g>
      <path class="st1" d="M158.37,907.03c-2.45,0-3.67-1.22-3.67-3.67v-34.54H59.17v34.54c0,2.45-1.22,3.67-3.67,3.67h-5.82c-2.45,0-3.67-1.22-3.67-3.67v-78.96c0-2.45,1.22-3.67,3.67-3.67h5.82c2.45,0,3.67,1.22,3.67,3.67v33.28h95.53v-33.28c0-2.45,1.22-3.67,3.67-3.67h5.82c2.45,0,3.67,1.22,3.67,3.67v78.96c0,2.45-1.22,3.67-3.67,3.67h-5.82Z"/>
      <path class="st1" d="M309.83,907.03c-1.77,0-3.02-.21-3.73-.63-.72-.42-1.5-1.18-2.34-2.28l-12.53-16.7h-82.5l-12.53,16.7c-.84,1.1-1.63,1.86-2.34,2.28-.72.42-1.92.63-3.61.63h-5.82c-.93,0-1.62-.25-2.09-.76-.46-.51-.7-1.1-.7-1.77,0-.59.25-1.22.76-1.9l58.84-78.96c.76-1.18,1.5-1.96,2.21-2.34.72-.38,1.96-.57,3.73-.57h6.33c1.69,0,2.89.19,3.61.57.72.38,1.5,1.16,2.34,2.34l58.84,78.96c.42.68.63,1.31.63,1.9,0,.68-.21,1.26-.63,1.77-.42.51-1.1.76-2.02.76h-6.45ZM283.89,876.29l-33.79-44.79h-.25l-33.66,44.79v.25h67.7v-.25Z"/>
      <path class="st1" d="M443.96,907.03c-1.69,0-2.95-.15-3.8-.44-.84-.29-1.86-.99-3.04-2.09l-30.24-28.09h-60.99v26.95c0,2.45-1.22,3.67-3.67,3.67h-5.82c-2.45,0-3.67-1.22-3.67-3.67v-78.96c0-2.45,1.22-3.67,3.67-3.67h88.19c18.05,0,27.08,8.94,27.08,26.83,0,9.03-2.28,15.88-6.83,20.56s-11.31,7.02-20.25,7.02h-1.52v.25l30.37,26.95c.76.76,1.14,1.52,1.14,2.28,0,.68-.23,1.25-.7,1.71-.46.46-1.08.7-1.83.7h-8.1ZM345.89,831.87v33.4h75.67c11.05,0,16.58-5.57,16.58-16.7s-5.53-16.7-16.58-16.7h-75.67Z"/>
      <path class="st1" d="M609.72,907.03c-2.53,0-3.8-1.22-3.8-3.67v-71.24h-.25l-52.26,72.12c-.51.93-1.14,1.63-1.9,2.09-.76.46-1.86.7-3.29.7h-6.96c-1.44,0-2.55-.23-3.35-.7-.8-.46-1.41-1.16-1.83-2.09l-52.39-72.12h-.25v71.24c0,2.45-1.22,3.67-3.67,3.67h-5.31c-2.53,0-3.8-1.22-3.8-3.67v-78.96c0-2.45,1.27-3.67,3.8-3.67h13.03c1.43,0,2.55.23,3.35.7.8.46,1.46,1.16,1.96,2.09l52.01,71.75h.25l52.13-71.75c.42-.93,1.03-1.62,1.83-2.09.8-.46,1.92-.7,3.35-.7h13.16c2.36,0,3.54,1.22,3.54,3.67v78.96c0,2.45-1.18,3.67-3.54,3.67h-5.82Z"/>
      <path class="st1" d="M680.33,907.03c-14.34,0-25.12-3.61-32.33-10.82-7.21-7.21-10.82-17.99-10.82-32.33s3.61-25.12,10.82-32.33,17.99-10.82,32.33-10.82h40.62c14.34,0,25.12,3.61,32.33,10.82s10.82,17.99,10.82,32.33-3.61,25.12-10.82,32.33c-7.21,7.21-17.99,10.82-32.33,10.82h-40.62ZM718.92,895.9c21.17,0,31.76-10.67,31.76-32.01s-10.59-32.01-31.76-32.01h-36.44c-21.17,0-31.76,10.67-31.76,32.01s10.59,32.01,31.76,32.01h36.44Z"/>
      <path class="st1" d="M888.47,907.03c-1.44,0-2.55-.21-3.35-.63-.8-.42-1.67-1.01-2.59-1.77l-87.56-72.76h-.25v71.49c0,2.45-1.22,3.67-3.67,3.67h-5.31c-2.53,0-3.8-1.22-3.8-3.67v-78.96c0-2.45,1.26-3.67,3.8-3.67h11.64c1.43,0,2.55.21,3.35.63.8.42,1.67,1.01,2.59,1.77l87.44,72.76h.25v-71.49c0-2.45,1.22-3.67,3.67-3.67h5.44c2.45,0,3.67,1.22,3.67,3.67v78.96c0,2.45-1.22,3.67-3.67,3.67h-11.64Z"/>
      <path class="st1" d="M977.05,907.03c-2.45,0-3.67-1.22-3.67-3.67v-30.24l-56.43-47.7c-.68-.67-1.01-1.47-1.01-2.4,0-.67.21-1.22.63-1.65s1.05-.63,1.9-.63h8.35c1.69,0,2.93.17,3.73.51.8.34,1.83,1.01,3.1,2.02l46.69,39.48,46.44-39.48c1.27-1.1,2.3-1.79,3.1-2.09.8-.29,2.04-.44,3.73-.44h7.59c.76,0,1.35.23,1.77.7.42.46.63,1.03.63,1.71,0,.84-.34,1.6-1.01,2.28l-56.05,47.45v30.49c0,2.45-1.22,3.67-3.67,3.67h-5.82Z"/>
    </g>
    <g>
      <path class="st0" d="M144.2,997.43c-1.41,0-2.11-.7-2.11-2.11v-45.4c0-1.41.7-2.11,2.11-2.11h3.35c1.41,0,2.11.7,2.11,2.11v41.11h53.19c1.41,0,2.11.7,2.11,2.11v2.18c0,1.41-.7,2.11-2.11,2.11h-58.64Z"/>
      <path class="st0" d="M214.85,953.05c-1.31,0-1.96-.66-1.96-1.96v-5.53c0-1.31.65-1.96,1.96-1.96h3.56c1.31,0,1.96.66,1.96,1.96v5.53c0,1.31-.65,1.96-1.96,1.96h-3.56ZM215.14,997.43c-1.36,0-2.04-.66-2.04-1.96v-35.07c0-1.31.65-1.96,1.96-1.96h3.06c1.31,0,1.96.66,1.96,1.96v35.07c0,1.31-.65,1.96-1.96,1.96h-2.98Z"/>
      <path class="st0" d="M243.33,953.05c-2.35,2.04-3.58,4.97-3.67,8.8h29.32c1.31,0,1.96.65,1.96,1.96v1.96c0,1.31-.65,1.96-1.96,1.96h-29.39v27.72c0,1.31-.65,1.96-1.96,1.96h-3.13c-1.26,0-1.89-.66-1.89-1.96v-31.65c0-13,6.5-19.5,19.5-19.5h18.33c1.31,0,1.96.66,1.96,1.96v1.82c0,1.26-.66,1.89-1.96,1.89h-17.17c-4.27,0-7.58,1.02-9.93,3.06Z"/>
      <path class="st0" d="M297.28,997.43c-13,0-19.5-6.5-19.5-19.5s6.5-19.5,19.5-19.5h21.83c2.77,0,5.07.25,6.91.76,1.84.51,3.32,1.26,4.44,2.26,1.12,1,1.9,2.24,2.36,3.75.46,1.5.69,3.25.69,5.24,0,6.94-3.44,10.4-10.33,10.4h-38.12c.29,3.49,1.58,6.15,3.86,7.97,2.28,1.82,5.43,2.73,9.46,2.73h31.29c1.31,0,1.96.66,1.96,1.96v1.96c0,1.31-.65,1.96-1.96,1.96h-32.38ZM298.37,964.32c-4.03,0-7.18.9-9.46,2.69-2.28,1.8-3.57,4.44-3.86,7.93h36.67c3.15,0,4.73-1.62,4.73-4.87,0-3.83-2.3-5.75-6.91-5.75h-21.17Z"/>
      <path class="st0" d="M371.64,997.43c-1.41,0-2.11-.7-2.11-2.11v-45.4c0-1.41.7-2.11,2.11-2.11h3.35c1.41,0,2.11.7,2.11,2.11v45.4c0,1.41-.7,2.11-2.11,2.11h-3.35Z"/>
      <path class="st0" d="M391.43,997.43c-1.26,0-1.89-.66-1.89-1.96v-35.07c0-1.31.63-1.96,1.89-1.96h2.69c1.26,0,1.89.66,1.89,1.96v6.4h.15c1.21-1.41,2.51-2.63,3.89-3.67s2.93-1.92,4.66-2.62c1.72-.7,3.64-1.22,5.75-1.56,2.11-.34,4.5-.51,7.17-.51h7.13c13,0,19.5,6.5,19.5,19.5v17.53c0,1.31-.63,1.96-1.89,1.96h-3.13c-1.31,0-1.96-.66-1.96-1.96v-17.53c0-4.56-1.09-7.97-3.27-10.22-2.18-2.25-5.55-3.38-10.11-3.38h-8.08c-2.38,0-4.51.15-6.4.44-1.89.29-3.6.75-5.13,1.38-1.53.63-2.92,1.44-4.18,2.44-1.26,1-2.45,2.2-3.57,3.6v23.28c0,1.31-.65,1.96-1.96,1.96h-3.13Z"/>
      <path class="st0" d="M460.91,970.07c0,3.25,1.58,4.87,4.73,4.87h31.07c6.89,0,10.33,3.47,10.33,10.4,0,1.99-.23,3.74-.69,5.24-.46,1.5-1.25,2.76-2.36,3.78-1.12,1.02-2.6,1.78-4.44,2.29-1.84.51-4.15.76-6.91.76h-36.81c-1.31,0-1.96-.66-1.96-1.96v-1.96c0-1.31.66-1.96,1.96-1.96h37.25c4.61,0,6.91-1.94,6.91-5.82,0-3.25-1.58-4.88-4.73-4.88h-31.07c-6.89,0-10.33-3.47-10.33-10.4,0-1.99.23-3.73.69-5.24.46-1.5,1.25-2.75,2.36-3.75,1.12-.99,2.59-1.75,4.44-2.26,1.84-.51,4.15-.76,6.91-.76h35c1.26,0,1.89.66,1.89,1.96v1.96c0,1.31-.63,1.96-1.89,1.96h-35.43c-4.61,0-6.91,1.92-6.91,5.75Z"/>
      <path class="st0" d="M535.93,997.43c-13,0-19.5-6.5-19.5-19.5v-29.47c0-1.31.65-1.96,1.96-1.96h3.06c1.31,0,1.96.66,1.96,1.96v9.97h29.47c1.26,0,1.89.66,1.89,1.96v1.96c0,1.31-.63,1.96-1.89,1.96h-29.47v13.61c0,4.56,1.09,7.97,3.27,10.22,2.18,2.25,5.55,3.38,10.11,3.38h16.08c1.26,0,1.89.66,1.89,1.96v1.96c0,1.31-.63,1.96-1.89,1.96h-16.95Z"/>
      <path class="st0" d="M567.36,997.43c-1.26,0-1.89-.66-1.89-1.96v-35.07c0-1.31.63-1.96,1.89-1.96h2.69c1.26,0,1.89.66,1.89,1.96v8.29h.15c2.23-3.54,5.1-6.14,8.62-7.79,3.52-1.65,8.09-2.47,13.71-2.47h6.84c1.31,0,1.96.66,1.96,1.96v2.25c0,1.26-.66,1.89-1.96,1.89h-9.02c-4.75,0-8.73.75-11.93,2.26-3.2,1.5-5.82,4.15-7.86,7.93v20.74c0,1.31-.66,1.96-1.96,1.96h-3.13Z"/>
      <path class="st0" d="M661.72,997.43c-1.31,0-1.96-.66-1.96-1.96v-6.33h-.15c-1.26,1.41-2.58,2.63-3.96,3.67-1.38,1.04-2.92,1.9-4.62,2.58-1.7.68-3.6,1.19-5.71,1.53-2.11.34-4.5.51-7.17.51h-8.08c-13,0-19.5-6.5-19.5-19.5v-17.53c0-1.31.65-1.96,1.96-1.96h3.06c1.31,0,1.96.66,1.96,1.96v17.53c0,4.56,1.09,7.97,3.27,10.22,2.18,2.25,5.55,3.38,10.11,3.38h9.02c2.38,0,4.51-.15,6.4-.44,1.89-.29,3.61-.75,5.17-1.38,1.55-.63,2.96-1.44,4.22-2.44,1.26-.99,2.45-2.22,3.57-3.67v-23.21c0-1.31.66-1.96,1.96-1.96h3.06c1.31,0,1.96.66,1.96,1.96v35.07c0,1.31-.66,1.96-1.96,1.96h-2.62Z"/>
      <path class="st0" d="M718.11,997.43c-1.31,0-1.96-.66-1.96-1.96v-18.77c0-4.12-.95-7.21-2.84-9.28-1.89-2.06-4.9-3.09-9.02-3.09h-1.53c-3.88,0-7.18.59-9.9,1.78-2.72,1.19-5.19,3.21-7.42,6.08v23.28c0,1.31-.66,1.96-1.96,1.96h-3.13c-1.26,0-1.89-.66-1.89-1.96v-35.07c0-1.31.63-1.96,1.89-1.96h2.69c1.26,0,1.89.66,1.89,1.96v6.4h.15c2.47-2.86,5.21-4.97,8.22-6.33,3.01-1.36,6.69-2.04,11.06-2.04h1.24c7.61,0,12.78,2.72,15.5,8.15h.15c2.42-2.76,5.14-4.81,8.15-6.15,3.01-1.33,6.74-2,11.2-2h2.77c5.72,0,10.08,1.53,13.06,4.58s4.47,7.62,4.47,13.68v18.77c0,1.31-.66,1.96-1.96,1.96h-3.06c-1.31,0-1.96-.66-1.96-1.96v-18.77c0-4.12-.96-7.21-2.87-9.28-1.92-2.06-4.94-3.09-9.06-3.09h-2.18c-3.78,0-7.02.57-9.71,1.71-2.69,1.14-5.13,3.09-7.31,5.86.1.78.18,1.56.25,2.37.07.8.11,1.61.11,2.44v18.77c0,1.31-.66,1.96-1.96,1.96h-3.06Z"/>
      <path class="st0" d="M789.63,997.43c-13,0-19.5-6.5-19.5-19.5s6.5-19.5,19.5-19.5h21.83c2.76,0,5.07.25,6.91.76,1.84.51,3.32,1.26,4.44,2.26,1.12,1,1.9,2.24,2.36,3.75.46,1.5.69,3.25.69,5.24,0,6.94-3.44,10.4-10.33,10.4h-38.12c.29,3.49,1.58,6.15,3.86,7.97,2.28,1.82,5.43,2.73,9.46,2.73h31.29c1.31,0,1.96.66,1.96,1.96v1.96c0,1.31-.66,1.96-1.96,1.96h-32.38ZM790.72,964.32c-4.03,0-7.18.9-9.46,2.69-2.28,1.8-3.56,4.44-3.86,7.93h36.67c3.15,0,4.73-1.62,4.73-4.87,0-3.83-2.3-5.75-6.91-5.75h-21.17Z"/>
      <path class="st0" d="M838.09,997.43c-1.26,0-1.89-.66-1.89-1.96v-35.07c0-1.31.63-1.96,1.89-1.96h2.69c1.26,0,1.89.66,1.89,1.96v6.4h.15c1.21-1.41,2.51-2.63,3.89-3.67,1.38-1.04,2.93-1.92,4.66-2.62,1.72-.7,3.64-1.22,5.75-1.56,2.11-.34,4.5-.51,7.17-.51h7.13c13,0,19.5,6.5,19.5,19.5v17.53c0,1.31-.63,1.96-1.89,1.96h-3.13c-1.31,0-1.96-.66-1.96-1.96v-17.53c0-4.56-1.09-7.97-3.27-10.22-2.18-2.25-5.55-3.38-10.11-3.38h-8.08c-2.38,0-4.51.15-6.4.44s-3.6.75-5.13,1.38c-1.53.63-2.92,1.44-4.18,2.44-1.26,1-2.45,2.2-3.56,3.6v23.28c0,1.31-.66,1.96-1.96,1.96h-3.13Z"/>
      <path class="st0" d="M920.81,997.43c-13,0-19.5-6.5-19.5-19.5v-29.47c0-1.31.66-1.96,1.96-1.96h3.06c1.31,0,1.96.66,1.96,1.96v9.97h29.47c1.26,0,1.89.66,1.89,1.96v1.96c0,1.31-.63,1.96-1.89,1.96h-29.47v13.61c0,4.56,1.09,7.97,3.27,10.22,2.18,2.25,5.55,3.38,10.11,3.38h16.08c1.26,0,1.89.66,1.89,1.96v1.96c0,1.31-.63,1.96-1.89,1.96h-16.95Z"/>
    </g>
  </g>
</svg>
