<?xml version="1.0" encoding="UTF-8"?>
<svg id="Layer_1" data-name="Layer 1" xmlns="http://www.w3.org/2000/svg" viewBox="0 0 1080 1080">
  <defs>
    <style>
      .cls-1, .cls-2 {
        fill: #c12032;
      }

      .cls-3, .cls-4 {
        fill: #fff;
      }

      .cls-4, .cls-2 {
        fill-rule: evenodd;
      }
    </style>
  </defs>
  <g>
    <path class="cls-2" d="M540,695.67c-.65,0-1.3-.08-1.93-.25-91.08-23.64-174.07-72.07-239.98-140.06-1.39-1.44-2.17-3.36-2.17-5.36V127.69c0-4.25,3.45-7.7,7.7-7.7h472.78c4.25,0,7.7,3.45,7.7,7.7v422.33c0,2-.78,3.92-2.17,5.36-65.91,67.98-148.9,116.41-239.98,140.06-.63.17-1.28.25-1.93.25h0ZM311.31,546.88h0c63.12,64.31,142.1,110.29,228.69,133.14,86.59-22.85,165.57-68.83,228.69-133.14V135.38h-457.39v411.5Z"/>
    <path class="cls-4" d="M396.03,443.88c0-4.61,1.83-9.02,5.09-12.28l15.4-15.37c8.3-8.29,8.01-18.06-.87-29.89l-4.26-5.67c-8.01-10.66-11.28-20.26-11.28-33.14,0-7.61,1.57-14.85,4.41-21.43-1.06-.23-2.16-.32-3.29-.27-6.87.3-12.16,6.23-12.16,13.1v47.08c0,28.33-15,48.96-42.25,58.1-.8.27-1.63.4-2.45.4-2.98,0-5.87-1.74-7.16-4.84-.78-1.88-.67-4.01.09-5.9,4.6-11.54,5.52-21.04,5.52-32.59v-61.67c0-26.18,21.42-48.18,47.6-47.73,11.75.2,22.7,4.68,31.09,12.55,9.14-6.98,20.55-11.13,32.91-11.13,8.24,0,15.55,2.02,22.61,3.97,6.35,1.75,12.34,3.41,18.46,3.41h31.71c3.14,0,4.96-3.54,3.15-6.1l-10.85-15.32c-1.4-1.97-3.67-3.14-6.08-3.14h-64.21c-48.18,0-93.11-31.29-109.37-76.11-.77-2.13-.7-4.53.38-6.52,1.67-3.06,5.1-4.56,8.38-3.86,12.93,2.76,25.65,4.11,38.91,4.11h72.07c-.71-2.97.39-6.21,3.03-8.08,3.47-2.46,8.27-1.64,10.73,1.83l65.47,92.41c4.3,6.07,13.96,3.13,14-4.31,0-.08,0-.16,0-.23v-21.59c0-24.46,7.99-44.08,23.12-56.75,14.96-12.52,35.38-16.91,59.04-12.68,2.01.36,3.43.53,5.16.59.8.03,1.61-.02,2.41-.13l1.76-.25c.67-.1,1.25-.49,1.6-1.07,4.13-6.9,9.43-12.62,16.08-17.37,1.97-1.41,4.45-2.06,6.79-1.43,3.45.93,5.73,4.01,5.73,7.44v27.62c0,2.01,1.5,3.71,3.5,3.95l60.62,7.32c1.89.23,3.32,1.84,3.15,3.78-.15,1.68-1.57,2.97-3.24,3.17l-60.53,7.31c-2,.24-3.5,1.94-3.5,3.95v46.55c0,4.25-3.45,7.7-7.7,7.7h-17.11c-3.02,0-5.77-1.77-7.01-4.52l-19.45-36.65c-4.41-8.31-16.99-1.52-13.17,6.91l16.31,36.06c5.42,11.94,11.03,24.29,11.03,50.36,0,3.24-.2,6.43-.58,9.57-.22,1.76.83,3.43,2.49,4.04l48.48,17.77c.79.29,1.55.69,2.2,1.23,2.85,2.38,3.55,6.14,2.15,9.2l-33.08,72.21,6.94,9.8c.9,1.27,2.86,1.08,3.46-.36,2.69-6.51,7.2-12.35,13.38-16.69,17.5-12.29,42.15-7.66,54.02,10.13,6.44,9.64,8.2,21.53,4.66,32.92-1.85,5.96-5.19,11.41-9.67,15.76-1.55,1.51-3.2,2.87-4.92,4.08-2.52,1.76-3.34,5.05-2.15,7.88,4.48,10.63,1.09,23.44-8.68,30.36-4.41,3.13-9.5,4.63-14.54,4.63-6.3,0-12.37-2.36-16.97-6.51-2.31-2.09-5.75-2.3-8.29-.5l-.05.04c-6.56,4.65-14.23,7.08-22.12,7.08-2.17,0-4.36-.18-6.54-.56-10.11-1.73-18.95-7.29-24.87-15.66-6.57-9.27-8.7-20.76-5.82-31.92,1.86-7.21,5.83-13.78,11.38-18.75,6.71-6.02,14.98-9.41,23.6-9.88,1.59-.09,2.48-1.85,1.56-3.15l-7.21-10.18h-24.63c-2.42,0-4.39-1.97-4.39-4.39v-6.79c0-2.42,1.97-4.39,4.39-4.39h13.61l-30.94-43.67c-3.87,2.67-8.03,5.02-12.45,7.01v136.29c0,2.56-2.07,4.63-4.63,4.63h-6.57c-2.36,0-4.33-1.77-4.6-4.12-5.84-50.32-16.18-80.14-32.35-117.52-.61-1.42-.78-2.99-.49-4.51l2.96-15.35-31.39-7.59c-3.76,26.59-15.84,46.66-37.35,61.78l10.27,82.1c.35,2.77-1.81,5.21-4.6,5.21h-6.24c-2.07,0-3.89-1.37-4.45-3.36l-4.1-14.36-18.44-64.51c-1.02-3.57.65-7.36,3.98-9.01,27.22-12.18,41.91-30.91,45.82-60.88-2.74-.36-5.57-.64-8.36-.82-3.28,29.29-25.33,53.04-54.5,58.29-1.46.26-2.82.93-3.88,1.98l-6.92,6.88c-1.07,1.06-1.78,2.44-2.02,3.93l-12.65,77.96c-.36,2.24-2.3,3.89-4.57,3.89h-6.08c-2.56,0-4.63-2.07-4.63-4.63v-98.24h0ZM645.48,430.37h0l3.52-34.63c-10.11.55-18.29.69-27.72.48l24.19,34.15h0ZM704.88,449.83h0c-4.78,0-9.6,1.42-13.79,4.39-5.21,3.69-8.67,9.19-9.75,15.48-1.07,6.3.37,12.63,4.06,17.84,3.69,5.21,9.19,8.67,15.49,9.75,6.29,1.07,12.63-.37,17.84-4.06,5.21-3.69,8.67-9.19,9.75-15.48,1.07-6.29-.37-12.63-4.06-17.84-4.5-6.35-11.77-10.08-19.54-10.08h0ZM640.25,490.23h0c-5.21,3.69-8.67,9.19-9.75,15.48-1.07,6.29.37,12.63,4.06,17.84,3.69,5.21,9.19,8.67,15.49,9.75,6.3,1.07,12.63-.37,17.84-4.06,5.21-3.69,8.67-9.19,9.75-15.48,1.07-6.29-.37-12.63-4.06-17.84-3.69-5.21-9.19-8.67-15.48-9.75-6.27-1.07-12.63.37-17.84,4.06h0ZM695.34,514.1h0c-4.82,3.42-5.97,10.12-2.55,14.94,3.42,4.82,10.12,5.96,14.94,2.55,4.82-3.42,5.97-10.12,2.55-14.94-3.42-4.82-10.12-5.97-14.94-2.55h0ZM416.79,242.53h0c-9.61,0-18.26-.74-29.07-2.46-.46-.07-.69.53-.3.78,8.94,5.76,16.93,9.75,27.54,13.64,10.86,3.98,22.45,6.14,34.26,6.14h55.68c.62,0,.98-.7.62-1.21l-9.75-13.76c-1.4-1.97-3.66-3.14-6.08-3.14h-72.91ZM378.25,225.24h0c8.3,1.3,16.41,1.9,25.3,1.9h77.61c.62,0,.98-.7.62-1.21l-9.74-13.76c-1.4-1.97-3.67-3.15-6.08-3.15h-78.45c-11.03,0-18.03-.93-29.2-4.07-.49-.14-.82.27-.55.75,2.34,4.05,4.95,7.57,7.98,10.99,5.19,5.86,7,7.67,12.49,8.54h0ZM632.43,363h0c-2.5,6.6-5.89,12.79-10.07,18.41,12.67.54,25.15.1,37.88-1.19,2.8-.28,5.1,1.44,4.73,4.61l-2.89,24.54c-.07.58.7.72.88.24l11.74-31.11-42.26-15.49h0ZM619.92,351.63h0c.07-.37.16-.73.28-1.1,1.19-4.82,1.82-9.85,1.82-15.01,0-22.74-4.47-32.59-9.65-44l-16.32-36.08c-5.2-11.49-.08-25.06,11.41-30.26,11.49-5.19,23.8-.43,29.81,10.66l16.77,30.95c.39.72,1.14,1.17,1.96,1.17h1.9c.67,0,1.22-.55,1.22-1.22v-48.43c0-7.85.57-15.7,1.7-23.47l1.41-9.69c.05-.34-.37-.47-.56-.16l-5.45,8.74c-1.38,2.81-4.88,5.22-8.21,5.74-7.75,1.11-7.76,1.34-15.73-.08-19.04-3.4-35.1-.18-46.46,9.33-11.52,9.64-17.61,25.18-17.61,44.94v21.59c0,25.13-15.71,40.73-40.99,40.73h-31.71c-8.21,0-15.51-2.02-22.56-3.97-6.36-1.76-12.36-3.42-18.51-3.42-21.47,0-38.93,17.47-38.93,38.93,0,8.02,1.37,14.81,8.19,23.89l4.26,5.67c13.5,17.96,13.3,36.2-.56,50.03l-15.06,15.03c-.59.59-.91,1.38-.91,2.21v8.6c0,.29.35.43.54.21,3.2-3.52,7.17-7.24,10.81-10.74,2.97-2.86,6.76-4.68,10.83-5.38,20.28-3.47,36.17-18.55,41.11-37.93,2.54-9.97,4.18-16.77,6.6-23.82l5.01-14.61c1.02-2.96,5.4-2.23,5.4.9v16.84c7.64.46,15.47,1.56,21.99,3.14l35.36,8.55,3.59-18.59c.71-3.68,5.1-3.85,5.73.26l2.52,16.32c1.01,6.53,1,13.17-.04,19.7l-1.74,10.97c-.25,1.58-.04,3.2.59,4.67,5.99,13.96,11.25,26.79,15.68,39.81.19.57,1.09.49,1.09-.2l-.05-62.37c0-3.22,2-6.09,5.01-7.21,19.39-7.2,33.38-22.82,38.46-41.84h0ZM383.59,307.14h0c-14.44,2.81-25.37,16.17-25.37,31.42v62.63c0,8.46-.72,17.03-3.24,24.14-.16.46.28.74.65.45,12.62-9.73,18.05-22.47,18.05-39.76v-47.46c0-10.08,5.15-18.26,12.64-22.74,6.81-4.08,16.87-4.6,25.34-1.02.61.26,1.04-.46.53-.9-7.51-6.42-17.8-8.86-28.59-6.76Z"/>
    <path class="cls-1" d="M399.93,568.67h280.13c2.15,0,3.9,1.75,3.9,3.9v7.59c0,2.15-1.75,3.9-3.9,3.9h-280.13c-2.15,0-3.9-1.75-3.9-3.9v-7.59c0-2.15,1.75-3.9,3.9-3.9Z"/>
  </g>
  <g>
    <path class="cls-3" d="M90.98,848.77h48.39l-1.96,11.12h-64.74v-91.55h18.31v80.43Z"/>
    <path class="cls-3" d="M188.66,765.73c28.12,0,49.7,21.58,49.7,48.39s-21.58,48.39-49.7,48.39-49.7-21.58-49.7-48.39,21.58-48.39,49.7-48.39ZM188.66,776.19c-15.69,0-30.08,14.39-30.08,37.93s14.39,37.93,30.08,37.93,30.08-14.39,30.08-37.93-14.39-37.93-30.08-37.93Z"/>
    <path class="cls-3" d="M273.39,859.89h-18.31v-91.55h18.31v91.55Z"/>
    <path class="cls-3" d="M324.75,768.34c30.73,0,51.01,20.27,51.01,45.78s-20.27,45.77-51.01,45.77h-30.08v-91.55h30.08ZM312.98,779.46v69.32h11.77c17.66,0,31.39-13.73,31.39-34.66s-13.73-34.66-31.39-34.66h-11.77Z"/>
    <path class="cls-3" d="M439.44,838.97h-40.54l-8.5,20.93h-13.08l37.93-91.55h15.69l36.62,91.55h-19.62l-8.5-20.93ZM403.47,827.85h32.04l-15.69-39.24h-.65l-15.69,39.24Z"/>
    <path class="cls-3" d="M507.69,768.34h33.35c24.2,0,34.66,10.46,34.66,24.2s-16.35,17-16.35,17v.65s24.2,2.62,24.2,22.23c0,15.04-12.42,27.46-37.93,27.46h-37.93v-91.55ZM526,779.46v26.16h15.04c9.81,0,15.04-5.23,15.04-13.08s-5.23-13.08-15.04-13.08h-15.04ZM526,816.08v32.69h19.62c11.12,0,18.44-7.19,18.44-16.35s-7.32-16.35-18.44-16.35h-19.62Z"/>
    <path class="cls-3" d="M616.25,826.54v33.35h-18.31v-91.55h33.35c26.16,0,39.24,13.08,39.24,29.43,0,18.96-18.31,23.54-18.31,23.54v.65l26.15,37.93h-20.27l-22.62-33.35h-19.23ZM631.29,816.08c11.77,0,19.62-7.85,19.62-18.31s-7.85-18.31-19.62-18.31h-15.04v36.62h15.04Z"/>
    <path class="cls-3" d="M707.81,859.89h-18.31v-91.55h18.31v91.55Z"/>
    <path class="cls-3" d="M749.01,779.46h-30.08v-11.12h78.47l-1.96,11.12h-28.12v80.43h-18.31v-80.43Z"/>
    <path class="cls-3" d="M826.83,859.89h-18.31v-91.55h18.31v91.55Z"/>
    <path class="cls-3" d="M878.5,765.73c22.89,0,34.66,17.66,34.66,17.66l-5.88,5.23s-11.12-12.43-26.16-12.43c-10.46,0-17,6.54-17,14.39,0,17,50.35,13.73,50.35,43.81,0,14.39-13.73,28.12-37.27,28.12-26.81,0-38.58-20.27-38.58-20.27l5.89-5.89s10.46,15.69,30.08,15.69c13.08,0,20.27-7.19,20.27-17.66,0-16.35-50.35-13.73-50.35-43.81,0-12.42,12.42-24.85,34-24.85Z"/>
    <path class="cls-3" d="M947.17,807.58h41.85v-39.24h18.31v91.55h-18.31v-41.2h-41.85v41.2h-18.31v-91.55h18.31v39.24Z"/>
  </g>
  <g>
    <path class="cls-3" d="M132.42,958.99v-54.04h11.18v45.08h20.23v8.96h-31.42Z"/>
    <path class="cls-3" d="M170.58,904.94h35.35v8.96h-24.16v12.72h20.15v8.96h-20.15v14.43h25.27v8.96h-36.46v-54.04Z"/>
    <path class="cls-3" d="M228.64,904.94h9.39l19.89,54.04h-11.36c-.97-2.85-2.16-6.6-3.59-11.27h-19.38c-.8,2.56-2.02,6.32-3.67,11.27h-11.18l19.89-54.04ZM233.42,919.54c-1.59,4.5-3.79,10.82-6.57,18.96h12.98c-2.68-7.86-4.81-14.17-6.4-18.96Z"/>
    <path class="cls-3" d="M265.18,958.99v-53.96c.8-.17,3.04-.4,6.74-.68,3.7-.28,6.52-.43,8.45-.43,13.77,0,20.66,5.64,20.66,16.9,0,6.09-2.48,11.27-7.43,15.54,2.05,4.72,5.55,12.27,10.5,22.62h-11.27c-2.79-6.09-5.81-12.64-9.05-19.64-.63.12-1.48.17-2.56.17-2.51,0-4.13-.23-4.87-.68v20.15h-11.18ZM276.36,913.48v16.31c1.71.51,3.56.77,5.55.77,4.89,0,7.34-3.24,7.34-9.73,0-5.29-2.53-7.94-7.6-7.94-2.9,0-4.67.2-5.29.6Z"/>
    <path class="cls-3" d="M321.01,922.78v36.2h-11.01v-54.04h9.31c9.11,11.84,18.16,24.28,27.15,37.31v-37.31h11.18v54.04h-9.56c-5.35-6.32-14.37-18.38-27.06-36.2Z"/>
    <path class="cls-3" d="M382.31,904.94v54.04h-11.01v-54.04h11.01Z"/>
    <path class="cls-3" d="M406.98,922.78v36.2h-11.01v-54.04h9.31c9.11,11.84,18.16,24.28,27.15,37.31v-37.31h11.18v54.04h-9.56c-5.35-6.32-14.37-18.38-27.06-36.2Z"/>
    <path class="cls-3" d="M497.23,954.46c-6.66,3.7-13.12,5.55-19.38,5.55-8.54,0-14.94-3.33-19.21-9.99-3.19-4.89-4.78-10.87-4.78-17.93,0-8.25,2.39-15.08,7.17-20.49,4.5-5.12,10.22-7.68,17.16-7.68,6.37,0,12.04,2.31,16.99,6.92l-4.35,7.09c-4.1-2.96-8.08-4.44-11.95-4.44s-7.07,1.79-9.6,5.38c-2.53,3.59-3.8,8.11-3.8,13.57,0,5.81,1.62,10.42,4.87,13.83,2.67,2.85,5.92,4.27,9.73,4.27,2.39,0,4.58-.37,6.57-1.11v-11.18h-9.65v-9.73h20.23v25.95Z"/>
    <path class="cls-3" d="M551.44,930.9h10.76v3.33c0,5.29-1.42,10.13-4.27,14.51,2.62,2.96,5.75,6.38,9.39,10.24h-12.29c-.34-.34-.74-.82-1.2-1.45-.57-.68-1.05-1.22-1.45-1.62-2.96,2.73-7.29,4.1-12.98,4.1s-9.85-1.77-12.81-5.3c-2.28-2.67-3.42-5.92-3.42-9.73,0-5.86,2.62-10.93,7.85-15.2-4.1-4.1-6.15-8.22-6.15-12.38s1.28-7.44,3.84-9.86c2.56-2.42,6.06-3.63,10.5-3.63s9.16,1.82,14,5.46c-.63.91-1.68,2.48-3.16,4.7-.46.74-.83,1.31-1.11,1.71-3.24-1.71-6.35-2.56-9.31-2.56-1.65,0-2.99.43-4.01,1.28-1.02.85-1.54,1.97-1.54,3.33,0,1.77,1.02,3.87,3.07,6.32.34.4.63.74.85,1.03,1.08,1.31,2.53,3.1,4.35,5.38,3.53,4.44,6.2,7.71,8.03,9.82.68-1.08,1.02-3.19,1.02-6.32v-3.16ZM536.33,936.36c-1.42,1.65-2.13,3.98-2.13,7,0,4.67,2.1,7,6.32,7,2.39,0,4.18-.71,5.38-2.13-.97-1.31-2.48-3.19-4.53-5.64-2.33-2.73-4.01-4.81-5.04-6.23Z"/>
    <path class="cls-3" d="M607.96,913.91h-15.62v-8.96h43.71v8.96h-16.82v45.08h-11.27v-45.08Z"/>
    <path class="cls-3" d="M644.16,958.99v-53.96c.8-.17,3.04-.4,6.74-.68,3.7-.28,6.52-.43,8.45-.43,13.77,0,20.66,5.64,20.66,16.9,0,6.09-2.48,11.27-7.43,15.54,2.05,4.72,5.55,12.27,10.5,22.62h-11.27c-2.79-6.09-5.81-12.64-9.05-19.64-.63.12-1.48.17-2.56.17-2.51,0-4.13-.23-4.87-.68v20.15h-11.18ZM655.34,913.48v16.31c1.71.51,3.56.77,5.55.77,4.89,0,7.34-3.24,7.34-9.73,0-5.29-2.53-7.94-7.6-7.94-2.9,0-4.67.2-5.29.6Z"/>
    <path class="cls-3" d="M703.75,904.94h9.39l19.89,54.04h-11.36c-.97-2.85-2.16-6.6-3.59-11.27h-19.38c-.8,2.56-2.02,6.32-3.67,11.27h-11.18l19.89-54.04ZM708.53,919.54c-1.59,4.5-3.79,10.82-6.57,18.96h12.98c-2.68-7.86-4.81-14.17-6.4-18.96Z"/>
    <path class="cls-3" d="M751.31,904.94v54.04h-11.01v-54.04h11.01Z"/>
    <path class="cls-3" d="M775.98,922.78v36.2h-11.01v-54.04h9.31c9.11,11.84,18.16,24.28,27.15,37.31v-37.31h11.18v54.04h-9.56c-5.35-6.32-14.37-18.38-27.06-36.2Z"/>
    <path class="cls-3" d="M837.28,904.94v54.04h-11.01v-54.04h11.01Z"/>
    <path class="cls-3" d="M861.95,922.78v36.2h-11.01v-54.04h9.31c9.11,11.84,18.16,24.28,27.15,37.31v-37.31h11.18v54.04h-9.56c-5.35-6.32-14.37-18.38-27.06-36.2Z"/>
    <path class="cls-3" d="M952.19,954.46c-6.66,3.7-13.12,5.55-19.38,5.55-8.54,0-14.94-3.33-19.21-9.99-3.19-4.89-4.78-10.87-4.78-17.93,0-8.25,2.39-15.08,7.17-20.49,4.5-5.12,10.22-7.68,17.16-7.68,6.37,0,12.04,2.31,16.99,6.92l-4.35,7.09c-4.1-2.96-8.08-4.44-11.95-4.44s-7.07,1.79-9.6,5.38c-2.53,3.59-3.8,8.11-3.8,13.57,0,5.81,1.62,10.42,4.87,13.83,2.67,2.85,5.92,4.27,9.73,4.27,2.39,0,4.58-.37,6.57-1.11v-11.18h-9.65v-9.73h20.23v25.95Z"/>
  </g>
</svg>